#!OML:ASF H:\Terrain\Patient Classification 1\PLAYGROUND\JustinFriday\JustinFriday.ASF
:FULLY-SPECIFIED
:DEGREES
1
root 11.7028 17.7281 12.6634 138.715 -85.2291 -138.453
lowerback 2.60415 1.46517 2.51926
upperback 1.10472 1.98473 2.41942
thorax -0.326024 0.975913 1.01229
lowerneck -7.03334 0.321332 -4.21319
upperneck 11.4157 0.753728 0.850098
head 4.5576 0.210519 0.992188
rclavicle -8.82107e-015 -4.77083e-015
rhumerus -26.7252 1.5468 -49.6607
rradius 10.9092
rwrist 39.7667
rhand -19.8338 -15.4733
rfingers 7.12502
rthumb 6.50031 -45.3535
lclavicle -8.82107e-015 -4.77083e-015
lhumerus -41.7547 -47.6872 76.1394
lradius 21.6496
lwrist -28.914
lhand -10.5937 -13.6658
lfingers 7.12502
lthumb 15.4118 15.7397
rfemur -3.42162 3.93626 13.9395
rtibia 26.45
rfoot -16.5853 -13.4855
rtoes -0.831323
lfemur -3.67666 4.14592 -11.3954
ltibia 26.65
lfoot -18.2735 3.72427
ltoes -1.76803
2
root 11.7024 17.7288 12.6647 137.099 -85.1328 -136.846
lowerback 2.60375 1.4706 2.76218
upperback 1.12777 1.99481 2.45176
thorax -0.294749 0.980839 0.910074
lowerneck -7.01642 0.360373 -4.19837
upperneck 11.3366 0.812718 0.781023
head 4.52948 0.237524 0.971535
rclavicle -7.20594e-015 1.70955e-014
rhumerus -26.7106 -2.81076 -47.9263
rradius 10.963
rwrist 45.1549
rhand -19.9855 -15.6461
rfingers 7.12502
rthumb 6.35381 -45.5308
lclavicle -7.20594e-015 1.70955e-014
lhumerus -41.62 -47.9277 76.0779
lradius 21.5847
lwrist -29.2964
lhand -10.9912 -13.5998
lfingers 7.12502
lthumb 15.029 15.8347
rfemur -3.33834 4.02037 14.1482
rtibia 26.3295
rfoot -16.485 -13.6728
rtoes -0.403398
lfemur -3.67709 3.98749 -11.2175
ltibia 26.6927
lfoot -18.3035 3.87599
ltoes -2.15703
3
root 11.7013 17.7284 12.6664 136.984 -85.1847 -136.748
lowerback 2.60213 1.45358 2.77873
upperback 1.14313 1.97174 2.44373
thorax -0.277328 0.969543 0.893538
lowerneck -7.07285 0.357928 -4.22913
upperneck 11.3485 0.81711 0.773097
head 4.54248 0.237911 0.974633
rclavicle -2.78547e-014 -1.27222e-014
rhumerus -26.7371 1.47076 -49.5698
rradius 11.2488
rwrist 41.0767
rhand -19.6377 -15.8303
rfingers 7.12502
rthumb 6.68959 -45.7046
lclavicle -2.78547e-014 -1.27222e-014
lhumerus -41.4711 -47.9013 75.8313
lradius 21.6845
lwrist -29.6806
lhand -10.8889 -13.7966
lfingers 7.12502
lthumb 15.1275 15.6305
rfemur -3.26995 3.85423 14.088
rtibia 26.2491
rfoot -16.4704 -13.5246
rtoes -0.725384
lfemur -3.62593 3.73227 -11.2751
ltibia 26.6516
lfoot -18.2882 3.91901
ltoes -1.71135
4
root 11.699 17.7308 12.6688 137.38 -85.1753 -137.171
lowerback 2.6021 1.44541 2.81711
upperback 1.15863 1.9609 2.43395
thorax -0.259788 0.964384 0.862658
lowerneck -6.89405 0.426539 -4.32012
upperneck 11.1228 0.898326 0.891096
head 4.44007 0.284918 1.02877
rclavicle 1.71203e-014 1.19271e-015
rhumerus -26.6364 1.0226 -49.3966
rradius 11.3068
rwrist 41.8171
rhand -19.1182 -15.1081
rfingers 7.12502
rthumb 7.19108 -44.9659
lclavicle 1.71203e-014 1.19271e-015
lhumerus -41.0386 -47.3999 75.2415
lradius 21.7609
lwrist -29.9814
lhand -10.6153 -14.0127
lfingers 7.12502
lthumb 15.391 15.3944
rfemur -3.16291 4.2136 14.1136
rtibia 26.1575
rfoot -16.4551 -13.8011
rtoes -1.06878
lfemur -3.56118 3.76519 -11.3146
ltibia 26.6073
lfoot -18.2141 3.88071
ltoes -1.36361
5
root 11.6979 17.7306 12.6689 138.124 -85.2006 -137.919
lowerback 2.57284 1.45605 2.83664
upperback 1.17669 1.97427 2.37084
thorax -0.221935 0.972139 0.787842
lowerneck -6.76467 0.496751 -4.21169
upperneck 10.9101 0.982557 0.829754
head 4.35184 0.331117 0.995448
rclavicle -7.95139e-016 7.55382e-015
rhumerus -26.8364 5.30761 -51.1712
rradius 11.7047
rwrist 37.1525
rhand -18.7845 -14.9971
rfingers 7.12502
rthumb 7.51314 -44.8436
lclavicle -7.95139e-016 7.55382e-015
lhumerus -40.336 -46.6075 74.3501
lradius 21.8075
lwrist -30.2136
lhand -10.325 -14.116
lfingers 7.12502
lthumb 15.6707 15.2693
rfemur -3.16381 3.97268 13.9928
rtibia 26.1327
rfoot -16.4529 -13.5468
rtoes -1.40843
lfemur -3.52665 3.60868 -11.42
ltibia 26.5858
lfoot -18.1896 4.15888
ltoes -2.24974
6
root 11.6968 17.7332 12.6698 138.701 -85.307 -138.497
lowerback 2.51272 1.43776 2.80503
upperback 1.2122 1.94605 2.30716
thorax -0.150976 0.959408 0.743176
lowerneck -6.80995 0.48548 -4.14793
upperneck 10.5069 0.98364 0.668804
head 4.70642 0.322145 1.03216
rclavicle -2.5842e-015 1.19271e-015
rhumerus -26.5434 1.00436 -49.651
rradius 11.471
rwrist 41.4972
rhand -18.5039 -14.5579
rfingers 7.12502
rthumb 7.78395 -44.3946
lclavicle -2.5842e-015 1.19271e-015
lhumerus -39.6004 -45.7264 73.4357
lradius 21.8584
lwrist -30.2968
lhand -9.8549 -14.3442
lfingers 7.12502
lthumb 16.1234 15.0052
rfemur -3.12666 4.24768 13.9239
rtibia 26.1036
rfoot -16.5865 -13.7749
rtoes -1.05979
lfemur -3.48193 3.18984 -11.5938
ltibia 26.5376
lfoot -18.2295 4.51203
ltoes -2.89622
7
root 11.6956 17.7291 12.668 138.686 -85.2151 -138.418
lowerback 2.39442 1.46408 2.89508
upperback 1.22845 1.97647 2.31753
thorax -0.0650727 0.975528 0.706466
lowerneck -6.80281 0.48901 -4.16731
upperneck 10.8569 0.982486 0.71729
head 4.34295 0.327629 0.953586
rclavicle -1.2275e-014 -2.46493e-014
rhumerus -26.7694 5.8768 -51.6289
rradius 11.9918
rwrist 35.5914
rhand -17.7085 -16.14
rfingers 7.12502
rthumb 8.55167 -45.9468
lclavicle -1.2275e-014 -2.46493e-014
lhumerus -38.8267 -44.7129 72.4914
lradius 21.9612
lwrist -30.1868
lhand -9.88319 -14.3439
lfingers 7.12502
lthumb 16.0961 15.0076
rfemur -3.25771 3.9253 13.9299
rtibia 26.1421
rfoot -16.5978 -13.4032
rtoes -0.319635
lfemur -3.52669 3.26131 -11.5201
ltibia 26.5146
lfoot -18.2444 4.52108
ltoes -2.3216
8
root 11.6941 17.7319 12.6653 139.284 -85.1385 -138.95
lowerback 2.35049 1.52504 2.87786
upperback 1.19013 2.05703 2.33931
thorax -0.080512 1.01542 0.737182
lowerneck -6.88612 0.465101 -4.17522
upperneck 11.0046 0.958215 0.684965
head 4.40296 0.310708 0.944598
rclavicle 1.03617e-014 1.19271e-014
rhumerus -26.5929 2.07062 -50.2577
rradius 11.932
rwrist 38.4634
rhand -16.7272 -16.2363
rfingers 7.12502
rthumb 9.49852 -46.0022
lclavicle 1.03617e-014 1.19271e-014
lhumerus -38.0524 -43.4629 71.5046
lradius 22.16
lwrist -29.8078
lhand -10.5166 -14.1232
lfingers 7.12502
lthumb 15.4862 15.2766
rfemur -3.30696 4.59666 14.0655
rtibia 26.1512
rfoot -16.6705 -13.9685
rtoes -0.231117
lfemur -3.58078 3.55656 -11.4825
ltibia 26.487
lfoot -18.1898 4.47488
ltoes -2.21525
9
root 11.6952 17.7324 12.6652 139.69 -85.1743 -139.373
lowerback 2.41533 1.55576 2.82804
upperback 1.17495 2.10075 2.34242
thorax -0.133978 1.03663 0.764945
lowerneck -6.91495 0.412518 -4.23148
upperneck 11.0556 0.896494 0.670358
head 4.42491 0.276154 0.946074
rclavicle 1.54058e-015 0
rhumerus -26.716 0.748269 -49.9058
rradius 12.1601
rwrist 38.5403
rhand -16.517 -15.2504
rfingers 7.12502
rthumb 9.70136 -45.007
lclavicle 1.54058e-015 0
lhumerus -37.267 -42.0888 70.5244
lradius 22.4335
lwrist -28.9781
lhand -10.3513 -14.2851
lfingers 7.12502
lthumb 15.6453 15.1023
rfemur -3.30463 4.58171 14.0057
rtibia 26.1794
rfoot -16.7386 -13.8945
rtoes -0.929694
lfemur -3.59776 3.78479 -11.4994
ltibia 26.5178
lfoot -18.198 4.13972
ltoes -1.65089
10
root 11.6957 17.7328 12.6659 138.155 -85.0872 -137.839
lowerback 2.43074 1.56336 3.077
upperback 1.1988 2.11444 2.33694
thorax -0.108524 1.04408 0.620287
lowerneck -7.03534 0.350057 -4.19754
upperneck 11.0592 0.824997 0.587478
head 4.44865 0.238002 0.911428
rclavicle -5.69021e-015 4.37326e-015
rhumerus -26.563 -2.13857 -49.1264
rradius 11.8392
rwrist 39.6372
rhand -16.9977 -14.4037
rfingers 7.12502
rthumb 9.23755 -44.1814
lclavicle -5.69021e-015 4.37326e-015
lhumerus -35.9403 -39.7681 68.9089
lradius 22.5197
lwrist -28.5942
lhand -9.50671 -15.1875
lfingers 7.12502
lthumb 16.4586 14.1343
rfemur -3.2895 4.43547 14.15
rtibia 26.1461
rfoot -16.7297 -13.7422
rtoes -0.773234
lfemur -3.59743 3.67599 -11.321
ltibia 26.5395
lfoot -18.2745 3.96629
ltoes -0.417906
11
root 11.6946 17.7301 12.6661 136.968 -85.0038 -136.621
lowerback 2.37885 1.56202 3.28072
upperback 1.21889 2.11259 2.32129
thorax -0.0506709 1.04433 0.492777
lowerneck -7.30031 0.300795 -4.01633
upperneck 11.1977 0.77536 0.38333
head 4.53849 0.20714 0.817628
rclavicle -1.64494e-014 -1.82882e-014
rhumerus -26.6633 -0.856155 -49.9597
rradius 12.3558
rwrist 35.5159
rhand -17.2761 -15.4306
rfingers 7.12502
rthumb 8.96891 -45.22
lclavicle -1.64494e-014 -1.82882e-014
lhumerus -34.5451 -36.8478 67.1497
lradius 22.5986
lwrist -28.1625
lhand -8.83584 -16.0885
lfingers 7.12502
lthumb 17.1045 13.1786
rfemur -3.30135 4.01546 14.246
rtibia 26.0938
rfoot -16.4256 -13.6215
rtoes -1.20773
lfemur -3.63563 3.32271 -11.2253
ltibia 26.6082
lfoot -18.2432 4.5122
ltoes -1.84465
